<svg width="790.5" height="848" viewBox="0 0 790.5 848" xmlns="http://www.w3.org/2000/svg">
<style>
    svg {
        font-family: SFMono-Regular,Consolas,Liberation Mono,Menlo,monospace;
        font-size: 14px;
        font-kerning: normal;
        text-rendering: optimizeLegibility;
        fill: #24292e;
    }

    rect {
        fill: #f6f8fa;
        stroke: #d6d8da;
        stroke-width: 1;
    }

    .held {
        fill: #fdd;
    }

    .combo {
        fill: #cdf;
    }

    .ghost {
        fill: #ddd;
    }

    text {
        text-anchor: middle;
        dominant-baseline: middle;
    }

    .label {
        font-weight: bold;
        text-anchor: start;
        stroke: white;
        stroke-width: 2;
        paint-order: stroke;
    }

    .small {
        font-size: 80%;
    }
</style>
<text x="27.5" y="25.0" class="label">QWERTY:</text>
<rect rx="6" ry="6" x="29.5" y="52" width="55" height="50"/>
<text x="57.0" y="77.0">TAB</text>
<rect rx="6" ry="6" x="88.5" y="52" width="55" height="50"/>
<text x="116.0" y="77.0">Q</text>
<rect rx="6" ry="6" x="147.5" y="52" width="55" height="50"/>
<text x="175.0" y="77.0">W</text>
<rect rx="6" ry="6" x="206.5" y="52" width="55" height="50"/>
<text x="234.0" y="77.0">E</text>
<rect rx="6" ry="6" x="265.5" y="52" width="55" height="50"/>
<text x="293.0" y="77.0">R</text>
<rect rx="6" ry="6" x="324.5" y="52" width="55" height="50"/>
<text x="352.0" y="77.0">T</text>
<rect rx="6" ry="6" x="29.5" y="106" width="55" height="50"/>
<text x="57.0" y="131.0">ESC</text>
<rect rx="6" ry="6" x="88.5" y="106" width="55" height="50"/>
<text x="116.0" y="131.0">A</text>
<text x="116.0" y="149.0" class="small">Gui</text>
<rect rx="6" ry="6" x="147.5" y="106" width="55" height="50"/>
<text x="175.0" y="131.0">S</text>
<text x="175.0" y="149.0" class="small">Alt</text>
<rect rx="6" ry="6" x="206.5" y="106" width="55" height="50"/>
<text x="234.0" y="131.0">D</text>
<text x="234.0" y="149.0" class="small">Ctrl</text>
<rect rx="6" ry="6" x="265.5" y="106" width="55" height="50"/>
<text x="293.0" y="131.0">F</text>
<text x="293.0" y="149.0" class="small">Shift</text>
<rect rx="6" ry="6" x="324.5" y="106" width="55" height="50"/>
<text x="352.0" y="131.0">G</text>
<rect rx="6" ry="6" x="29.5" y="160" width="55" height="50"/>
<text x="57.0" y="185.0">SHIFT</text>
<rect rx="6" ry="6" x="88.5" y="160" width="55" height="50"/>
<text x="116.0" y="185.0">Z</text>
<rect rx="6" ry="6" x="147.5" y="160" width="55" height="50"/>
<text x="175.0" y="185.0">X</text>
<rect rx="6" ry="6" x="206.5" y="160" width="55" height="50"/>
<text x="234.0" y="185.0">C</text>
<rect rx="6" ry="6" x="265.5" y="160" width="55" height="50"/>
<text x="293.0" y="185.0">V</text>
<rect rx="6" ry="6" x="324.5" y="160" width="55" height="50"/>
<text x="352.0" y="185.0">B</text>
<rect rx="6" ry="6" x="411.0" y="52" width="55" height="50"/>
<text x="438.5" y="77.0">Y</text>
<rect rx="6" ry="6" x="470.0" y="52" width="55" height="50"/>
<text x="497.5" y="77.0">U</text>
<rect rx="6" ry="6" x="529.0" y="52" width="55" height="50"/>
<text x="556.5" y="77.0">I</text>
<rect rx="6" ry="6" x="588.0" y="52" width="55" height="50"/>
<text x="615.5" y="77.0">O</text>
<rect rx="6" ry="6" x="647.0" y="52" width="55" height="50"/>
<text x="674.5" y="77.0">P</text>
<rect rx="6" ry="6" x="706.0" y="52" width="55" height="50"/>
<text x="733.5" y="77.0">BSpace</text>
<rect rx="6" ry="6" x="411.0" y="106" width="55" height="50"/>
<text x="438.5" y="131.0">H</text>
<rect rx="6" ry="6" x="470.0" y="106" width="55" height="50"/>
<text x="497.5" y="131.0">J</text>
<text x="497.5" y="149.0" class="small">Shift</text>
<rect rx="6" ry="6" x="529.0" y="106" width="55" height="50"/>
<text x="556.5" y="131.0">k</text>
<text x="556.5" y="149.0" class="small">Ctrl</text>
<rect rx="6" ry="6" x="588.0" y="106" width="55" height="50"/>
<text x="615.5" y="131.0">L</text>
<text x="615.5" y="149.0" class="small">Alt</text>
<rect rx="6" ry="6" x="647.0" y="106" width="55" height="50"/>
<text x="674.5" y="131.0">&#x27;</text>
<text x="674.5" y="149.0" class="small">Gui</text>
<rect rx="6" ry="6" x="706.0" y="106" width="55" height="50"/>
<text x="733.5" y="131.0">Enter</text>
<rect rx="6" ry="6" x="411.0" y="160" width="55" height="50"/>
<text x="438.5" y="185.0">N</text>
<rect rx="6" ry="6" x="470.0" y="160" width="55" height="50"/>
<text x="497.5" y="185.0">M</text>
<rect rx="6" ry="6" x="529.0" y="160" width="55" height="50"/>
<text x="556.5" y="185.0">,</text>
<rect rx="6" ry="6" x="588.0" y="160" width="55" height="50"/>
<text x="615.5" y="185.0">.</text>
<rect rx="6" ry="6" x="647.0" y="160" width="55" height="50"/>
<text x="674.5" y="185.0">/</text>
<rect rx="6" ry="6" x="706.0" y="160" width="55" height="50"/>
<text x="733.5" y="185.0">Shift</text>
<rect rx="6" ry="6" x="206.5" y="214" width="55" height="50"/>
<text x="234.0" y="239.0">BSpace</text>
<rect rx="6" ry="6" x="265.5" y="214" width="55" height="50"/>
<text x="293.0" y="239.0">Space</text>
<text x="293.0" y="257.0" class="small">NUM</text>
<rect rx="6" ry="6" x="324.5" y="214" width="55" height="50"/>
<text x="352.0" y="239.0">Enter</text>
<text x="352.0" y="257.0" class="small">SYSTEM</text>
<rect rx="6" ry="6" x="411.0" y="214" width="55" height="50"/>
<text x="438.5" y="239.0">Enter</text>
<text x="438.5" y="257.0" class="small">SYSTEM</text>
<rect rx="6" ry="6" x="470.0" y="214" width="55" height="50"/>
<text x="497.5" y="239.0">Space</text>
<text x="497.5" y="257.0" class="small">MISC</text>
<rect rx="6" ry="6" x="529.0" y="214" width="55" height="50"/>
<text x="556.5" y="239.0">BSpace</text>
<rect rx="6" ry="6" x="131.75" y="64.5" width="27.5" height="25.0" class="combo"/>
<text x="145.5" y="77.0" class="small">@</text>
<rect rx="6" ry="6" x="190.75" y="64.5" width="27.5" height="25.0" class="combo"/>
<text x="204.5" y="77.0" class="small">?</text>
<rect rx="6" ry="6" x="190.75" y="118.5" width="27.5" height="25.0" class="combo"/>
<text x="204.5" y="131.0" class="small">!</text>
<rect rx="6" ry="6" x="249.75" y="64.5" width="27.5" height="25.0" class="combo"/>
<text x="263.5" y="77.0" class="small">(</text>
<rect rx="6" ry="6" x="513.25" y="64.5" width="27.5" height="25.0" class="combo"/>
<text x="527.0" y="77.0" class="small">)</text>
<rect rx="6" ry="6" x="249.75" y="118.5" width="27.5" height="25.0" class="combo"/>
<text x="263.5" y="131.0" class="small">{</text>
<rect rx="6" ry="6" x="513.25" y="118.5" width="27.5" height="25.0" class="combo"/>
<text x="527.0" y="131.0" class="small">}</text>
<rect rx="6" ry="6" x="249.75" y="172.5" width="27.5" height="25.0" class="combo"/>
<text x="263.5" y="185.0" class="small">[</text>
<rect rx="6" ry="6" x="513.25" y="172.5" width="27.5" height="25.0" class="combo"/>
<text x="527.0" y="185.0" class="small">]</text>
<rect rx="6" ry="6" x="572.25" y="118.5" width="27.5" height="25.0" class="combo"/>
<text x="586.0" y="131.0" class="small">|</text>
<rect rx="6" ry="6" x="381.5" y="226.5" width="27.5" height="25.0" class="combo"/>
<text x="395.25" y="239.0" class="small">Alfred</text>
<rect rx="6" ry="6" x="572.25" y="172.5" width="27.5" height="25.0" class="combo"/>
<text x="586.0" y="185.0" class="small">-</text>
<rect rx="6" ry="6" x="572.25" y="64.5" width="27.5" height="25.0" class="combo"/>
<text x="586.0" y="77.0" class="small">+</text>
<rect rx="6" ry="6" x="190.75" y="172.5" width="27.5" height="25.0" class="combo"/>
<text x="204.5" y="185.0" class="small">*</text>
<text x="27.5" y="291.0" class="label">Colemak-dh:</text>
<rect rx="6" ry="6" x="29.5" y="318" width="55" height="50"/>
<text x="57.0" y="343.0">TAB</text>
<rect rx="6" ry="6" x="88.5" y="318" width="55" height="50"/>
<text x="116.0" y="343.0">Q</text>
<rect rx="6" ry="6" x="147.5" y="318" width="55" height="50"/>
<text x="175.0" y="343.0">W</text>
<rect rx="6" ry="6" x="206.5" y="318" width="55" height="50"/>
<text x="234.0" y="343.0">F</text>
<rect rx="6" ry="6" x="265.5" y="318" width="55" height="50"/>
<text x="293.0" y="343.0">P</text>
<rect rx="6" ry="6" x="324.5" y="318" width="55" height="50"/>
<text x="352.0" y="343.0">B</text>
<rect rx="6" ry="6" x="29.5" y="372" width="55" height="50"/>
<text x="57.0" y="397.0">ESC</text>
<rect rx="6" ry="6" x="88.5" y="372" width="55" height="50"/>
<text x="116.0" y="397.0">A</text>
<text x="116.0" y="415.0" class="small">Ctrl</text>
<rect rx="6" ry="6" x="147.5" y="372" width="55" height="50"/>
<text x="175.0" y="397.0">R</text>
<text x="175.0" y="415.0" class="small">Gui</text>
<rect rx="6" ry="6" x="206.5" y="372" width="55" height="50"/>
<text x="234.0" y="397.0">S</text>
<text x="234.0" y="415.0" class="small">Alt</text>
<rect rx="6" ry="6" x="265.5" y="372" width="55" height="50"/>
<text x="293.0" y="397.0">T</text>
<text x="293.0" y="415.0" class="small">Shift</text>
<rect rx="6" ry="6" x="324.5" y="372" width="55" height="50"/>
<text x="352.0" y="397.0">G</text>
<rect rx="6" ry="6" x="29.5" y="426" width="55" height="50"/>
<text x="57.0" y="451.0">SHIFT</text>
<rect rx="6" ry="6" x="88.5" y="426" width="55" height="50"/>
<text x="116.0" y="451.0">Z</text>
<rect rx="6" ry="6" x="147.5" y="426" width="55" height="50"/>
<text x="175.0" y="451.0">X</text>
<rect rx="6" ry="6" x="206.5" y="426" width="55" height="50"/>
<text x="234.0" y="451.0">C</text>
<rect rx="6" ry="6" x="265.5" y="426" width="55" height="50"/>
<text x="293.0" y="451.0">D</text>
<rect rx="6" ry="6" x="324.5" y="426" width="55" height="50"/>
<text x="352.0" y="451.0">V</text>
<rect rx="6" ry="6" x="411.0" y="318" width="55" height="50"/>
<text x="438.5" y="343.0">J</text>
<rect rx="6" ry="6" x="470.0" y="318" width="55" height="50"/>
<text x="497.5" y="343.0">L</text>
<rect rx="6" ry="6" x="529.0" y="318" width="55" height="50"/>
<text x="556.5" y="343.0">U</text>
<rect rx="6" ry="6" x="588.0" y="318" width="55" height="50"/>
<text x="615.5" y="343.0">Y</text>
<rect rx="6" ry="6" x="647.0" y="318" width="55" height="50"/>
<text x="674.5" y="343.0">&#x27;</text>
<rect rx="6" ry="6" x="706.0" y="318" width="55" height="50"/>
<text x="733.5" y="343.0">BSpace</text>
<rect rx="6" ry="6" x="411.0" y="372" width="55" height="50"/>
<text x="438.5" y="397.0">M</text>
<rect rx="6" ry="6" x="470.0" y="372" width="55" height="50"/>
<text x="497.5" y="397.0">N</text>
<text x="497.5" y="415.0" class="small">Shift</text>
<rect rx="6" ry="6" x="529.0" y="372" width="55" height="50"/>
<text x="556.5" y="397.0">E</text>
<text x="556.5" y="415.0" class="small">Alt</text>
<rect rx="6" ry="6" x="588.0" y="372" width="55" height="50"/>
<text x="615.5" y="397.0">I</text>
<text x="615.5" y="415.0" class="small">Gui</text>
<rect rx="6" ry="6" x="647.0" y="372" width="55" height="50"/>
<text x="674.5" y="397.0">O</text>
<text x="674.5" y="415.0" class="small">Ctrl</text>
<rect rx="6" ry="6" x="706.0" y="372" width="55" height="50"/>
<text x="733.5" y="397.0">Enter</text>
<rect rx="6" ry="6" x="411.0" y="426" width="55" height="50"/>
<text x="438.5" y="451.0">K</text>
<rect rx="6" ry="6" x="470.0" y="426" width="55" height="50"/>
<text x="497.5" y="451.0">H</text>
<rect rx="6" ry="6" x="529.0" y="426" width="55" height="50"/>
<text x="556.5" y="451.0">,</text>
<rect rx="6" ry="6" x="588.0" y="426" width="55" height="50"/>
<text x="615.5" y="451.0">.</text>
<rect rx="6" ry="6" x="647.0" y="426" width="55" height="50"/>
<text x="674.5" y="451.0">/</text>
<rect rx="6" ry="6" x="706.0" y="426" width="55" height="50"/>
<text x="733.5" y="451.0">SHIFT</text>
<rect rx="6" ry="6" x="206.5" y="480" width="55" height="50"/>
<text x="234.0" y="505.0">BSpace</text>
<rect rx="6" ry="6" x="265.5" y="480" width="55" height="50"/>
<text x="293.0" y="505.0">Space</text>
<text x="293.0" y="523.0" class="small">NUM</text>
<rect rx="6" ry="6" x="324.5" y="480" width="55" height="50"/>
<text x="352.0" y="505.0">Enter</text>
<text x="352.0" y="523.0" class="small">SYSTEM</text>
<rect rx="6" ry="6" x="411.0" y="480" width="55" height="50"/>
<text x="438.5" y="505.0">Enter</text>
<text x="438.5" y="523.0" class="small">SYSTEM</text>
<rect rx="6" ry="6" x="470.0" y="480" width="55" height="50"/>
<text x="497.5" y="505.0">Space</text>
<text x="497.5" y="523.0" class="small">MISC</text>
<rect rx="6" ry="6" x="529.0" y="480" width="55" height="50"/>
<text x="556.5" y="505.0">BSpace</text>
<rect rx="6" ry="6" x="131.75" y="330.5" width="27.5" height="25.0" class="combo"/>
<text x="145.5" y="343.0" class="small">@</text>
<rect rx="6" ry="6" x="190.75" y="330.5" width="27.5" height="25.0" class="combo"/>
<text x="204.5" y="343.0" class="small">?</text>
<rect rx="6" ry="6" x="190.75" y="384.5" width="27.5" height="25.0" class="combo"/>
<text x="204.5" y="397.0" class="small">!</text>
<rect rx="6" ry="6" x="249.75" y="330.5" width="27.5" height="25.0" class="combo"/>
<text x="263.5" y="343.0" class="small">(</text>
<rect rx="6" ry="6" x="513.25" y="330.5" width="27.5" height="25.0" class="combo"/>
<text x="527.0" y="343.0" class="small">)</text>
<rect rx="6" ry="6" x="249.75" y="384.5" width="27.5" height="25.0" class="combo"/>
<text x="263.5" y="397.0" class="small">{</text>
<rect rx="6" ry="6" x="513.25" y="384.5" width="27.5" height="25.0" class="combo"/>
<text x="527.0" y="397.0" class="small">}</text>
<rect rx="6" ry="6" x="249.75" y="438.5" width="27.5" height="25.0" class="combo"/>
<text x="263.5" y="451.0" class="small">[</text>
<rect rx="6" ry="6" x="513.25" y="438.5" width="27.5" height="25.0" class="combo"/>
<text x="527.0" y="451.0" class="small">]</text>
<rect rx="6" ry="6" x="572.25" y="384.5" width="27.5" height="25.0" class="combo"/>
<text x="586.0" y="397.0" class="small">|</text>
<rect rx="6" ry="6" x="381.5" y="492.5" width="27.5" height="25.0" class="combo"/>
<text x="395.25" y="505.0" class="small">Alfred</text>
<rect rx="6" ry="6" x="572.25" y="438.5" width="27.5" height="25.0" class="combo"/>
<text x="586.0" y="451.0" class="small">-</text>
<rect rx="6" ry="6" x="572.25" y="330.5" width="27.5" height="25.0" class="combo"/>
<text x="586.0" y="343.0" class="small">+</text>
<rect rx="6" ry="6" x="190.75" y="438.5" width="27.5" height="25.0" class="combo"/>
<text x="204.5" y="451.0" class="small">*</text>
<text x="27.5" y="557.0" class="label">NAV:</text>
<rect rx="6" ry="6" x="29.5" y="584" width="55" height="50"/>
<rect rx="6" ry="6" x="88.5" y="584" width="55" height="50"/>
<text x="116.0" y="609.0">
<tspan x="116.0" dy="-0.6em">Win</tspan><tspan x="116.0" dy="1.2em">Close</tspan>
</text>
<rect rx="6" ry="6" x="147.5" y="584" width="55" height="50"/>
<text x="175.0" y="609.0">
<tspan x="175.0" dy="-0.6em">Tab</tspan><tspan x="175.0" dy="1.2em">Prev</tspan>
</text>
<rect rx="6" ry="6" x="206.5" y="584" width="55" height="50"/>
<text x="234.0" y="609.0">
<tspan x="234.0" dy="-0.6em">Tab</tspan><tspan x="234.0" dy="1.2em">Next</tspan>
</text>
<rect rx="6" ry="6" x="265.5" y="584" width="55" height="50"/>
<text x="293.0" y="609.0">
<tspan x="293.0" dy="-0.6em">Tab</tspan><tspan x="293.0" dy="1.2em">Close</tspan>
</text>
<rect rx="6" ry="6" x="324.5" y="584" width="55" height="50"/>
<text x="352.0" y="609.0">
<tspan x="352.0" dy="-0.6em">Vol</tspan><tspan x="352.0" dy="1.2em">Up</tspan>
</text>
<rect rx="6" ry="6" x="29.5" y="638" width="55" height="50"/>
<rect rx="6" ry="6" x="88.5" y="638" width="55" height="50"/>
<text x="116.0" y="663.0">Ctrl</text>
<rect rx="6" ry="6" x="147.5" y="638" width="55" height="50"/>
<text x="175.0" y="663.0">Gui</text>
<rect rx="6" ry="6" x="206.5" y="638" width="55" height="50"/>
<text x="234.0" y="663.0">Alt</text>
<rect rx="6" ry="6" x="265.5" y="638" width="55" height="50"/>
<text x="293.0" y="663.0">Tab</text>
<text x="293.0" y="681.0" class="small">Shift</text>
<rect rx="6" ry="6" x="324.5" y="638" width="55" height="50"/>
<text x="352.0" y="663.0">
<tspan x="352.0" dy="-0.6em">Vol</tspan><tspan x="352.0" dy="1.2em">Down</tspan>
</text>
<rect rx="6" ry="6" x="29.5" y="692" width="114" height="50"/>
<rect rx="6" ry="6" x="147.5" y="692" width="55" height="50"/>
<text x="175.0" y="717.0">
<tspan x="175.0" dy="-0.6em">Win</tspan><tspan x="175.0" dy="1.2em">Prev</tspan>
</text>
<rect rx="6" ry="6" x="206.5" y="692" width="55" height="50"/>
<text x="234.0" y="717.0">
<tspan x="234.0" dy="-0.6em">Win</tspan><tspan x="234.0" dy="1.2em">Next</tspan>
</text>
<rect rx="6" ry="6" x="265.5" y="692" width="55" height="50"/>
<text x="293.0" y="717.0">Paste</text>
<rect rx="6" ry="6" x="324.5" y="692" width="55" height="50"/>
<text x="352.0" y="717.0">
<tspan x="352.0" dy="-0.6em">Play</tspan><tspan x="352.0" dy="1.2em">Pause</tspan>
</text>
<rect rx="6" ry="6" x="411.0" y="584" width="55" height="50"/>
<text x="438.5" y="609.0">Home</text>
<rect rx="6" ry="6" x="470.0" y="584" width="55" height="50"/>
<text x="497.5" y="609.0">
<tspan x="497.5" dy="-0.6em">Page</tspan><tspan x="497.5" dy="1.2em">Down</tspan>
</text>
<rect rx="6" ry="6" x="529.0" y="584" width="55" height="50"/>
<text x="556.5" y="609.0">
<tspan x="556.5" dy="-0.6em">Page</tspan><tspan x="556.5" dy="1.2em">Up</tspan>
</text>
<rect rx="6" ry="6" x="588.0" y="584" width="55" height="50"/>
<text x="615.5" y="609.0">End</text>
<rect rx="6" ry="6" x="647.0" y="584" width="114" height="50"/>
<rect rx="6" ry="6" x="411.0" y="638" width="55" height="50"/>
<text x="438.5" y="663.0">Left</text>
<rect rx="6" ry="6" x="470.0" y="638" width="55" height="50"/>
<text x="497.5" y="663.0">Down</text>
<rect rx="6" ry="6" x="529.0" y="638" width="55" height="50"/>
<text x="556.5" y="663.0">Up</text>
<rect rx="6" ry="6" x="588.0" y="638" width="55" height="50"/>
<text x="615.5" y="663.0">Right</text>
<rect rx="6" ry="6" x="647.0" y="638" width="55" height="50"/>
<text x="674.5" y="663.0">Calc</text>
<rect rx="6" ry="6" x="706.0" y="638" width="55" height="50"/>
<rect rx="6" ry="6" x="411.0" y="692" width="55" height="50"/>
<text x="438.5" y="717.0">Insert</text>
<rect rx="6" ry="6" x="470.0" y="692" width="55" height="50"/>
<text x="497.5" y="717.0">Delete</text>
<rect rx="6" ry="6" x="529.0" y="692" width="55" height="50"/>
<text x="556.5" y="717.0">Prev</text>
<rect rx="6" ry="6" x="588.0" y="692" width="55" height="50"/>
<text x="615.5" y="717.0">Next</text>
<rect rx="6" ry="6" x="647.0" y="692" width="114" height="50"/>
<rect rx="6" ry="6" x="206.5" y="746" width="55" height="50"/>
<text x="234.0" y="771.0">Ctrl</text>
<rect rx="6" ry="6" x="265.5" y="746" width="55" height="50" class="held"/>
<rect rx="6" ry="6" x="324.5" y="746" width="55" height="50"/>
<text x="352.0" y="771.0">none</text>
<rect rx="6" ry="6" x="411.0" y="746" width="55" height="50"/>
<text x="438.5" y="771.0">FUN</text>
<rect rx="6" ry="6" x="470.0" y="746" width="55" height="50"/>
<text x="497.5" y="771.0">Shift</text>
<rect rx="6" ry="6" x="529.0" y="746" width="55" height="50"/>
<text x="556.5" y="771.0">none</text>
</svg>
